<svg width="15" height="15" viewBox="0 0 15 15" fill="none" xmlns="http://www.w3.org/2000/svg">
<path d="M8.01366 9.52238L5.00781 10.0634L5.50879 7.01751L11.25 1.29637C11.3431 1.20246 11.4539 1.12792 11.576 1.07706C11.6981 1.02619 11.8291 1 11.9613 1C12.0936 1 12.2246 1.02619 12.3467 1.07706C12.4688 1.12792 12.5796 1.20246 12.6727 1.29637L13.7348 2.35844C13.8287 2.45159 13.9032 2.5624 13.9541 2.6845C14.005 2.8066 14.0312 2.93756 14.0312 3.06983C14.0312 3.20209 14.005 3.33305 13.9541 3.45515C13.9032 3.57725 13.8287 3.68807 13.7348 3.78121L8.01366 9.52238Z" stroke-width="1.5" stroke-linecap="round" stroke-linejoin="round"/>
<path d="M12.5224 10.0235V13.0293C12.5224 13.2951 12.4169 13.5499 12.229 13.7378C12.0411 13.9257 11.7862 14.0313 11.5205 14.0313H2.00195C1.73622 14.0313 1.48137 13.9257 1.29346 13.7378C1.10556 13.5499 1 13.2951 1 13.0293V3.5108C1 3.24507 1.10556 2.99022 1.29346 2.80231C1.48137 2.61441 1.73622 2.50885 2.00195 2.50885H5.0078" stroke-width="1.5" stroke-linecap="round" stroke-linejoin="round"/>
</svg>
